<svg width="32" height="32" viewBox="0 0 32 32" fill="none" xmlns="http://www.w3.org/2000/svg">
<path d="M25.7614 7.416C25.5588 7.31126 25.3617 7.19645 25.1707 7.072C24.6156 6.70496 24.1066 6.27253 23.6547 5.784C22.5227 4.48933 22.1 3.176 21.9454 2.25733H21.9507C21.8214 1.49333 21.8747 1 21.884 1H16.7307V20.924C16.7307 21.1907 16.7307 21.456 16.72 21.7173C16.72 21.7493 16.716 21.7787 16.7147 21.8147C16.7147 21.828 16.7147 21.844 16.7107 21.8587V21.8707C16.6566 22.5854 16.4276 23.2758 16.044 23.8812C15.6604 24.4867 15.1338 24.9885 14.5107 25.3427C13.8606 25.7125 13.1253 25.9064 12.3774 25.9053C9.97735 25.9053 8.03068 23.948 8.03068 21.5307C8.03068 19.112 9.97735 17.1547 12.3774 17.1547C12.832 17.1547 13.284 17.2267 13.716 17.368L13.7227 12.12C12.4107 11.9507 11.0779 12.0553 9.80834 12.4271C8.53879 12.7988 7.36011 13.4298 6.34668 14.28C5.45849 15.0514 4.71173 15.9719 4.14002 17C3.92268 17.3747 3.10135 18.8827 3.00268 21.328C2.94002 22.7147 3.35735 24.1547 3.55602 24.748V24.7613C3.68002 25.1107 4.16535 26.3053 4.95468 27.312C5.59121 28.12 6.34328 28.8298 7.18668 29.4187V29.4053L7.19868 29.4187C9.69202 31.112 12.4587 31.0013 12.4587 31.0013C12.9374 30.9813 14.5414 31.0013 16.3627 30.1387C18.3827 29.1813 19.532 27.756 19.532 27.756C20.2668 26.9042 20.8512 25.9334 21.26 24.8853C21.7267 23.6587 21.8813 22.1893 21.8813 21.6027V11.0307C21.944 11.068 22.7774 11.6187 22.7774 11.6187C22.7774 11.6187 23.9774 12.388 25.848 12.888C27.1894 13.244 28.9987 13.32 28.9987 13.32V8.204C28.3654 8.27333 27.0787 8.07333 25.76 7.41733L25.7614 7.416Z" fill="black"/>
</svg>
